<svg xmlns="http://www.w3.org/2000/svg" width="256" height="256" viewBox="0 0 256 256"><defs><radialGradient id="sff4d1f" cx=".36" cy=".3" r=".9"><stop offset="0" stop-color="#ff9174"/><stop offset=".5" stop-color="#ff4d1f"/><stop offset="1" stop-color="#c23b18"/></radialGradient><radialGradient id="sff2e2e" cx=".36" cy=".3" r=".9"><stop offset="0" stop-color="#ff7d7d"/><stop offset=".5" stop-color="#ff2e2e"/><stop offset="1" stop-color="#c22323"/></radialGradient><radialGradient id="sfff6e6" cx=".36" cy=".3" r=".9"><stop offset="0" stop-color="#fff9f0"/><stop offset=".5" stop-color="#fff6e6"/><stop offset="1" stop-color="#c2bbaf"/></radialGradient><radialGradient id="sffe2b8" cx=".36" cy=".3" r=".9"><stop offset="0" stop-color="#ffedd3"/><stop offset=".5" stop-color="#ffe2b8"/><stop offset="1" stop-color="#c2ac8c"/></radialGradient><radialGradient id="sffc21f" cx=".36" cy=".3" r=".9"><stop offset="0" stop-color="#ffd974"/><stop offset=".5" stop-color="#ffc21f"/><stop offset="1" stop-color="#c29318"/></radialGradient><radialGradient id="sff3b3b" cx=".36" cy=".3" r=".9"><stop offset="0" stop-color="#ff8585"/><stop offset=".5" stop-color="#ff3b3b"/><stop offset="1" stop-color="#c22d2d"/></radialGradient></defs><ellipse cx="128" cy="230" rx="62" ry="9" fill="#000" opacity=".16"/><g transform="translate(66,170) rotate(-58) scale(0.75)"><path d="M0,0 C-20,0 -28,-20 -20,-38 C-14,-50 -6,-54 -4,-72 C8,-60 26,-46 24,-24 C23,-10 16,0 0,0 Z" fill="url(#sff4d1f)" stroke="#2f1d12" stroke-width="6.666666666666667" stroke-linejoin="round" stroke-linecap="round"/><path d="M0,-4 C-12,-4 -17,-18 -12,-30 C-8,-38 -2,-40 0,-52 C8,-42 16,-32 15,-20 C14,-10 10,-4 0,-4 Z" fill="#ffa41c" /><path d="M0,-6 C-6,-6 -9,-14 -6,-21 C-3,-26 0,-28 1,-34 C6,-28 9,-21 8,-15 C7,-9 5,-6 0,-6 Z" fill="#fff0a0" /></g><g transform="translate(74,150) rotate(-38) scale(0.6)"><path d="M0,0 C-20,0 -28,-20 -20,-38 C-14,-50 -6,-54 -4,-72 C8,-60 26,-46 24,-24 C23,-10 16,0 0,0 Z" fill="url(#sff2e2e)" stroke="#2f1d12" stroke-width="8.333333333333334" stroke-linejoin="round" stroke-linecap="round"/><path d="M0,-4 C-12,-4 -17,-18 -12,-30 C-8,-38 -2,-40 0,-52 C8,-42 16,-32 15,-20 C14,-10 10,-4 0,-4 Z" fill="#ff8a1c" /><path d="M0,-6 C-6,-6 -9,-14 -6,-21 C-3,-26 0,-28 1,-34 C6,-28 9,-21 8,-15 C7,-9 5,-6 0,-6 Z" fill="#ffe08a" /></g><path d="M116,196 L112,222 M104,222 L120,222" fill="none" stroke="#e8a01a" stroke-width="5" stroke-linecap="round" stroke-linejoin="round"/><path d="M146,196 L150,222 M142,222 L158,222" fill="none" stroke="#e8a01a" stroke-width="5" stroke-linecap="round" stroke-linejoin="round"/><path d="M80,168 C78,130 108,112 140,116 C176,120 196,146 188,176 C180,204 150,210 124,206 C98,202 82,190 80,168 Z" fill="url(#sfff6e6)" stroke="#2f1d12" stroke-width="5" stroke-linejoin="round" stroke-linecap="round"/><path d="M156,146 C140,128 106,134 92,166 C102,163 106,168 108,175 C115,168 122,171 125,179 C130,171 139,172 143,178 C148,168 158,160 156,146 Z" fill="url(#sffe2b8)" stroke="#2f1d12" stroke-width="5" stroke-linejoin="round" stroke-linecap="round"/><path d="M146,152 C134,146 118,150 108,162" fill="none" stroke="#d9a56a" stroke-width="3" stroke-linecap="round" stroke-linejoin="round"/><path d="M150,126 C146,96 160,72 182,72 C204,72 214,92 210,112 C206,132 188,144 172,146 C160,146 152,138 150,126 Z" fill="url(#sfff6e6)" stroke="#2f1d12" stroke-width="5" stroke-linejoin="round" stroke-linecap="round"/><g transform="translate(176,78) rotate(-10) scale(0.42)"><path d="M0,0 C-20,0 -28,-20 -20,-38 C-14,-50 -6,-54 -4,-72 C8,-60 26,-46 24,-24 C23,-10 16,0 0,0 Z" fill="url(#sff2e2e)" stroke="#2f1d12" stroke-width="11.904761904761905" stroke-linejoin="round" stroke-linecap="round"/><path d="M0,-4 C-12,-4 -17,-18 -12,-30 C-8,-38 -2,-40 0,-52 C8,-42 16,-32 15,-20 C14,-10 10,-4 0,-4 Z" fill="#ff6a3d" /><path d="M0,-6 C-6,-6 -9,-14 -6,-21 C-3,-26 0,-28 1,-34 C6,-28 9,-21 8,-15 C7,-9 5,-6 0,-6 Z" fill="#ffc0a0" /></g><g transform="translate(194,80) rotate(18) scale(0.36)"><path d="M0,0 C-20,0 -28,-20 -20,-38 C-14,-50 -6,-54 -4,-72 C8,-60 26,-46 24,-24 C23,-10 16,0 0,0 Z" fill="url(#sff2e2e)" stroke="#2f1d12" stroke-width="13.88888888888889" stroke-linejoin="round" stroke-linecap="round"/><path d="M0,-4 C-12,-4 -17,-18 -12,-30 C-8,-38 -2,-40 0,-52 C8,-42 16,-32 15,-20 C14,-10 10,-4 0,-4 Z" fill="#ff6a3d" /><path d="M0,-6 C-6,-6 -9,-14 -6,-21 C-3,-26 0,-28 1,-34 C6,-28 9,-21 8,-15 C7,-9 5,-6 0,-6 Z" fill="#ffc0a0" /></g><path d="M206,100 L232,108 L206,116 Z" fill="url(#sffc21f)" stroke="#2f1d12" stroke-width="4" stroke-linejoin="round" stroke-linecap="round"/><path d="M200,120 C212,124 214,140 204,144 C196,140 194,128 200,120 Z" fill="url(#sff3b3b)" stroke="#2f1d12" stroke-width="4" stroke-linejoin="round" stroke-linecap="round"/><ellipse cx="186" cy="100" rx="8" ry="10" fill="#2f1d12" /><ellipse cx="185.4" cy="96.2" rx="3.4" ry="3.6" fill="#fff" /><ellipse cx="190.6" cy="103.4" rx="1.5" ry="1.5" fill="#fff" /><ellipse cx="178" cy="120" rx="6.4" ry="3.6799999999999997" fill="#ff6f86" opacity=".5"/></svg>