<svg xmlns="http://www.w3.org/2000/svg" width="256" height="256" viewBox="0 0 256 256"><defs><radialGradient id="sff6a3d" cx=".36" cy=".3" r=".9"><stop offset="0" stop-color="#ffa387"/><stop offset=".5" stop-color="#ff6a3d"/><stop offset="1" stop-color="#c2512e"/></radialGradient><radialGradient id="se8502a" cx=".36" cy=".3" r=".9"><stop offset="0" stop-color="#f1937b"/><stop offset=".5" stop-color="#e8502a"/><stop offset="1" stop-color="#b03d20"/></radialGradient><radialGradient id="sff4d1f" cx=".36" cy=".3" r=".9"><stop offset="0" stop-color="#ff9174"/><stop offset=".5" stop-color="#ff4d1f"/><stop offset="1" stop-color="#c23b18"/></radialGradient></defs><ellipse cx="122" cy="230" rx="80" ry="9" fill="#000" opacity=".16"/><path d="M96,196 C70,204 40,198 34,176 C28,154 48,140 62,150 C72,158 66,172 56,170 C66,184 84,184 100,176 Z" fill="url(#sff6a3d)" stroke="#2f1d12" stroke-width="5" stroke-linejoin="round" stroke-linecap="round"/><path d="M84,206 C70,186 84,160 120,156 C150,152 178,160 186,180 C192,200 170,212 140,212 C118,212 96,214 84,206 Z" fill="url(#sff6a3d)" stroke="#2f1d12" stroke-width="5" stroke-linejoin="round" stroke-linecap="round"/><path d="M100,206 C104,194 124,188 150,190 C168,192 176,200 172,208 C150,214 118,214 100,206 Z" fill="#ffd58a" /><ellipse cx="92" cy="218" rx="14" ry="8" fill="url(#se8502a)" stroke="#2f1d12" stroke-width="5" stroke-linejoin="round" stroke-linecap="round"/><ellipse cx="164" cy="216" rx="14" ry="8" fill="url(#se8502a)" stroke="#2f1d12" stroke-width="5" stroke-linejoin="round" stroke-linecap="round"/><circle cx="86" cy="223" r="3.6" fill="#ffd58a"/><circle cx="94" cy="223" r="3.6" fill="#ffd58a"/><circle cx="102" cy="223" r="3.6" fill="#ffd58a"/><circle cx="162" cy="223" r="3.6" fill="#ffd58a"/><circle cx="170" cy="223" r="3.6" fill="#ffd58a"/><circle cx="178" cy="223" r="3.6" fill="#ffd58a"/><g transform="translate(112,162) rotate(-20) scale(0.36)"><path d="M0,0 C-20,0 -28,-20 -20,-38 C-14,-50 -6,-54 -4,-72 C8,-60 26,-46 24,-24 C23,-10 16,0 0,0 Z" fill="url(#sff4d1f)" stroke="#2f1d12" stroke-width="13.88888888888889" stroke-linejoin="round" stroke-linecap="round"/><path d="M0,-4 C-12,-4 -17,-18 -12,-30 C-8,-38 -2,-40 0,-52 C8,-42 16,-32 15,-20 C14,-10 10,-4 0,-4 Z" fill="#ffa41c" /><path d="M0,-6 C-6,-6 -9,-14 -6,-21 C-3,-26 0,-28 1,-34 C6,-28 9,-21 8,-15 C7,-9 5,-6 0,-6 Z" fill="#fff0a0" /></g><g transform="translate(136,158) rotate(-5) scale(0.42)"><path d="M0,0 C-20,0 -28,-20 -20,-38 C-14,-50 -6,-54 -4,-72 C8,-60 26,-46 24,-24 C23,-10 16,0 0,0 Z" fill="url(#sff4d1f)" stroke="#2f1d12" stroke-width="11.904761904761905" stroke-linejoin="round" stroke-linecap="round"/><path d="M0,-4 C-12,-4 -17,-18 -12,-30 C-8,-38 -2,-40 0,-52 C8,-42 16,-32 15,-20 C14,-10 10,-4 0,-4 Z" fill="#ffa41c" /><path d="M0,-6 C-6,-6 -9,-14 -6,-21 C-3,-26 0,-28 1,-34 C6,-28 9,-21 8,-15 C7,-9 5,-6 0,-6 Z" fill="#fff0a0" /></g><g transform="translate(160,164) rotate(12) scale(0.36)"><path d="M0,0 C-20,0 -28,-20 -20,-38 C-14,-50 -6,-54 -4,-72 C8,-60 26,-46 24,-24 C23,-10 16,0 0,0 Z" fill="url(#sff4d1f)" stroke="#2f1d12" stroke-width="13.88888888888889" stroke-linejoin="round" stroke-linecap="round"/><path d="M0,-4 C-12,-4 -17,-18 -12,-30 C-8,-38 -2,-40 0,-52 C8,-42 16,-32 15,-20 C14,-10 10,-4 0,-4 Z" fill="#ffa41c" /><path d="M0,-6 C-6,-6 -9,-14 -6,-21 C-3,-26 0,-28 1,-34 C6,-28 9,-21 8,-15 C7,-9 5,-6 0,-6 Z" fill="#fff0a0" /></g><path d="M150,188 C146,166 152,148 166,136 L200,146 C192,160 186,176 186,196 Z" fill="url(#sff6a3d)" stroke="#2f1d12" stroke-width="5" stroke-linejoin="round" stroke-linecap="round"/><path d="M146,126 C140,100 154,80 184,78 C214,76 234,94 232,118 C230,142 208,154 184,154 C164,154 150,144 146,126 Z" fill="url(#sff6a3d)" stroke="#2f1d12" stroke-width="5" stroke-linejoin="round" stroke-linecap="round"/><ellipse cx="182" cy="112" rx="9.6" ry="12" fill="#2f1d12" /><ellipse cx="180.88" cy="107.44" rx="4.08" ry="4.32" fill="#fff" /><ellipse cx="187.12" cy="116.08" rx="1.7999999999999998" ry="1.7999999999999998" fill="#fff" /><ellipse cx="214" cy="112" rx="8" ry="10" fill="#2f1d12" /><ellipse cx="213.4" cy="108.2" rx="3.4" ry="3.6" fill="#fff" /><ellipse cx="218.6" cy="115.4" rx="1.5" ry="1.5" fill="#fff" /><path d="M199,136 Q208,144.1 217,136" fill="none" stroke="#2f1d12" stroke-width="3.6" stroke-linecap="round" stroke-linejoin="round"/><ellipse cx="194" cy="132" rx="6.4" ry="3.6799999999999997" fill="#ff6f86" opacity=".5"/></svg>