<svg xmlns="http://www.w3.org/2000/svg" width="256" height="256" viewBox="0 0 256 256"><defs><radialGradient id="s7ccf4a" cx=".36" cy=".3" r=".9"><stop offset="0" stop-color="#aee18f"/><stop offset=".5" stop-color="#7ccf4a"/><stop offset="1" stop-color="#5e9d38"/></radialGradient><radialGradient id="s8ad65a" cx=".36" cy=".3" r=".9"><stop offset="0" stop-color="#b6e699"/><stop offset=".5" stop-color="#8ad65a"/><stop offset="1" stop-color="#69a344"/></radialGradient><radialGradient id="s3f8f48" cx=".36" cy=".3" r=".9"><stop offset="0" stop-color="#88ba8e"/><stop offset=".5" stop-color="#3f8f48"/><stop offset="1" stop-color="#306d37"/></radialGradient><radialGradient id="s9a6a3a" cx=".36" cy=".3" r=".9"><stop offset="0" stop-color="#c0a385"/><stop offset=".5" stop-color="#9a6a3a"/><stop offset="1" stop-color="#75512c"/></radialGradient><radialGradient id="s5cc65a" cx=".36" cy=".3" r=".9"><stop offset="0" stop-color="#9adc99"/><stop offset=".5" stop-color="#5cc65a"/><stop offset="1" stop-color="#469644"/></radialGradient><radialGradient id="s4cb85a" cx=".36" cy=".3" r=".9"><stop offset="0" stop-color="#90d399"/><stop offset=".5" stop-color="#4cb85a"/><stop offset="1" stop-color="#3a8c44"/></radialGradient><radialGradient id="s6cd06a" cx=".36" cy=".3" r=".9"><stop offset="0" stop-color="#a4e2a3"/><stop offset=".5" stop-color="#6cd06a"/><stop offset="1" stop-color="#529e51"/></radialGradient></defs><ellipse cx="128" cy="230" rx="92" ry="9" fill="#000" opacity=".16"/><ellipse cx="84" cy="208" rx="18" ry="14" fill="url(#s7ccf4a)" stroke="#2f1d12" stroke-width="5" stroke-linejoin="round" stroke-linecap="round"/><g transform="translate(256,0) scale(-1,1)"><ellipse cx="84" cy="208" rx="18" ry="14" fill="url(#s7ccf4a)" stroke="#2f1d12" stroke-width="5" stroke-linejoin="round" stroke-linecap="round"/></g><path d="M34,182 C20,184 12,176 14,166 C22,166 30,170 36,176 Z" fill="url(#s7ccf4a)" stroke="#2f1d12" stroke-width="4" stroke-linejoin="round" stroke-linecap="round"/><path d="M180,180 C178,150 194,130 214,130 C236,132 246,152 240,172 C234,192 210,198 194,194 Z" fill="url(#s8ad65a)" stroke="#2f1d12" stroke-width="5" stroke-linejoin="round" stroke-linecap="round"/><ellipse cx="212" cy="156" rx="7.6" ry="9.5" fill="#2f1d12" /><ellipse cx="210.53" cy="152.39" rx="3.23" ry="3.42" fill="#fff" /><ellipse cx="215.47" cy="159.23" rx="1.4249999999999998" ry="1.4249999999999998" fill="#fff" /><path d="M218,176 Q224,181.4 230,176" fill="none" stroke="#2f1d12" stroke-width="3.6" stroke-linecap="round" stroke-linejoin="round"/><ellipse cx="204" cy="174" rx="5.6" ry="3.2199999999999998" fill="#ff6f86" opacity=".5"/><path d="M30,192 C30,140 70,108 120,108 C170,108 200,140 200,192 Z" fill="url(#s3f8f48)" stroke="#2f1d12" stroke-width="5" stroke-linejoin="round" stroke-linecap="round"/><path d="M30,192 L200,192" fill="none" stroke="#2f1d12" stroke-width="5" stroke-linecap="round" stroke-linejoin="round"/><path d="M70,190 C70,160 90,140 116,140 C142,140 162,160 162,190" fill="none" stroke="#2f1d12" stroke-width="3.5" stroke-linejoin="round" stroke-linecap="round"/><path d="M116,140 L116,112 M76,160 L44,150 M156,160 L188,150" fill="none" stroke="#24602d" stroke-width="3.5" stroke-linecap="round" stroke-linejoin="round"/><path d="M112,112 L112,86 L122,86 L122,112 Z" fill="url(#s9a6a3a)" stroke="#2f1d12" stroke-width="4" stroke-linejoin="round" stroke-linecap="round"/><circle cx="104" cy="70" r="20" fill="url(#s5cc65a)" stroke="#2f1d12" stroke-width="5"/><circle cx="134" cy="66" r="22" fill="url(#s4cb85a)" stroke="#2f1d12" stroke-width="5"/><circle cx="118" cy="50" r="20" fill="url(#s6cd06a)" stroke="#2f1d12" stroke-width="5"/><circle cx="140" cy="64" r="4" fill="#ff5a5a"/><circle cx="108" cy="52" r="4" fill="#ff5a5a"/><circle cx="100" cy="74" r="3.5" fill="#ff5a5a"/><g transform="translate(46,176) rotate(-150) scale(0.45)"><path d="M0,0 C10,-18 34,-22 50,-8 C38,8 14,12 0,0 Z" fill="url(#s7ccf4a)" stroke="#2f1d12" stroke-width="11.11111111111111" stroke-linejoin="round" stroke-linecap="round"/><path d="M3,-1 C16,-6 30,-8 44,-8" fill="none" stroke="#518730" stroke-width="5.777777777777778" stroke-linecap="round" stroke-linejoin="round"/></g><g transform="translate(170,116) rotate(-40) scale(0.45)"><path d="M0,0 C10,-18 34,-22 50,-8 C38,8 14,12 0,0 Z" fill="url(#s7ccf4a)" stroke="#2f1d12" stroke-width="11.11111111111111" stroke-linejoin="round" stroke-linecap="round"/><path d="M3,-1 C16,-6 30,-8 44,-8" fill="none" stroke="#518730" stroke-width="5.777777777777778" stroke-linecap="round" stroke-linejoin="round"/></g></svg>