<svg xmlns="http://www.w3.org/2000/svg" width="256" height="256" viewBox="0 0 256 256"><defs><radialGradient id="s3d8fe0" cx=".36" cy=".3" r=".9"><stop offset="0" stop-color="#87baec"/><stop offset=".5" stop-color="#3d8fe0"/><stop offset="1" stop-color="#2e6daa"/></radialGradient><radialGradient id="s58a8f5" cx=".36" cy=".3" r=".9"><stop offset="0" stop-color="#97c9f9"/><stop offset=".5" stop-color="#58a8f5"/><stop offset="1" stop-color="#4380ba"/></radialGradient><radialGradient id="s2f86e8" cx=".36" cy=".3" r=".9"><stop offset="0" stop-color="#7eb4f1"/><stop offset=".5" stop-color="#2f86e8"/><stop offset="1" stop-color="#2466b0"/></radialGradient><radialGradient id="s7cc8ff" cx=".36" cy=".3" r=".9"><stop offset="0" stop-color="#aeddff"/><stop offset=".5" stop-color="#7cc8ff"/><stop offset="1" stop-color="#5e98c2"/></radialGradient></defs><g transform="rotate(-14 128 120)"><path d="M206,118 C214,98 228,88 244,86 C238,100 236,112 226,122 C238,128 242,140 244,154 C230,150 216,140 206,128 Z" fill="url(#s3d8fe0)" stroke="#2f1d12" stroke-width="5" stroke-linejoin="round" stroke-linecap="round"/><path d="M128,82 C134,60 148,46 166,42 C160,58 160,74 166,88 Z" fill="url(#s3d8fe0)" stroke="#2f1d12" stroke-width="5" stroke-linejoin="round" stroke-linecap="round"/><path d="M30,124 C40,110 56,104 70,100 C92,76 142,70 182,90 C198,98 208,110 214,122 C200,122 184,126 172,132 C150,142 110,146 82,136 C66,132 50,130 30,128 Z" fill="url(#s58a8f5)" stroke="#2f1d12" stroke-width="5" stroke-linejoin="round" stroke-linecap="round"/><path d="M52,130 C86,140 140,140 172,132 C150,144 106,148 78,138 Z" fill="#e2f2ff" /><path d="M108,136 C116,154 114,168 104,178 C100,164 98,150 100,140 Z" fill="url(#s3d8fe0)" stroke="#2f1d12" stroke-width="4" stroke-linejoin="round" stroke-linecap="round"/><ellipse cx="78" cy="106" rx="8" ry="10" fill="#2f1d12" /><ellipse cx="75.4" cy="102.2" rx="3.4" ry="3.6" fill="#fff" /><ellipse cx="80.6" cy="109.4" rx="1.5" ry="1.5" fill="#fff" /><path d="M32,126 C46,130 62,128 74,120" fill="none" stroke="#2f1d12" stroke-width="3.4" stroke-linecap="round" stroke-linejoin="round"/><ellipse cx="86" cy="120" rx="5.6" ry="3.2199999999999998" fill="#ff6f86" opacity=".5"/></g><path d="M22,228 C16,208 36,196 58,200 C68,184 92,182 106,194 C100,202 104,212 114,214 C124,196 150,192 166,206 C180,194 204,194 214,206 C230,204 242,216 236,230 C206,242 50,242 22,228 Z" fill="url(#s2f86e8)" stroke="#2f1d12" stroke-width="5" stroke-linejoin="round" stroke-linecap="round"/><path d="M34,214 C44,204 60,202 70,206 M126,208 C136,200 152,200 160,208 M178,206 C190,200 204,202 210,210" fill="none" stroke="#ffffff" stroke-width="3.5" stroke-linecap="round" stroke-linejoin="round"/><g transform="translate(60,168) scale(0.7)"><path d="M0,-16 C6,-6 11,1 11,6 C11,13 6,17 0,17 C-6,17 -11,13 -11,6 C-11,1 -6,-6 0,-16 Z" fill="url(#s7cc8ff)" stroke="#2f1d12" stroke-width="5" stroke-linejoin="round" stroke-linecap="round"/><ellipse cx="-4" cy="4" rx="2.6" ry="3.6" fill="#fff" opacity=".8"/></g><g transform="translate(196,172) scale(0.8)"><path d="M0,-16 C6,-6 11,1 11,6 C11,13 6,17 0,17 C-6,17 -11,13 -11,6 C-11,1 -6,-6 0,-16 Z" fill="url(#s7cc8ff)" stroke="#2f1d12" stroke-width="4.375" stroke-linejoin="round" stroke-linecap="round"/><ellipse cx="-4" cy="4" rx="2.6" ry="3.6" fill="#fff" opacity=".8"/></g><g transform="translate(222,186) scale(0.55)"><path d="M0,-16 C6,-6 11,1 11,6 C11,13 6,17 0,17 C-6,17 -11,13 -11,6 C-11,1 -6,-6 0,-16 Z" fill="url(#s7cc8ff)" stroke="#2f1d12" stroke-width="6.363636363636363" stroke-linejoin="round" stroke-linecap="round"/><ellipse cx="-4" cy="4" rx="2.6" ry="3.6" fill="#fff" opacity=".8"/></g></svg>